<?xml version="1.0" encoding="utf-8"?>
<!-- Generator: Adobe Illustrator 16.0.0, SVG Export Plug-In . SVG Version: 6.00 Build 0)  -->
<!DOCTYPE svg PUBLIC "-//W3C//DTD SVG 1.0//EN" "http://www.w3.org/TR/2001/REC-SVG-20010904/DTD/svg10.dtd">
<svg version="1.0" id="Layer_2" xmlns="http://www.w3.org/2000/svg" xmlns:xlink="http://www.w3.org/1999/xlink" x="0px" y="0px"
	 width="195px" height="32.998px" viewBox="0 0 195 32.998" enable-background="new 0 0 195 32.998" xml:space="preserve">
<g>
	<path fill="#F9F7F7" d="M15.056,19.959v0.498c0,2.08-0.471,3.662-1.414,4.746S11.32,26.83,9.504,26.83
		c-1.807,0-3.181-0.542-4.124-1.626s-1.414-2.666-1.414-4.746v-8.335c0-2.1,0.449-3.713,1.348-4.841s2.188-1.692,3.867-1.692
		c0.703,0,1.365,0.129,1.985,0.388s1.14,0.627,1.56,1.106V5.97h1.816v5.947h-1.978l-0.029-0.483
		c-0.137-1.328-0.435-2.29-0.894-2.886s-1.118-0.894-1.978-0.894c-1.064,0-1.846,0.325-2.344,0.974s-0.747,1.663-0.747,3.04v9.067
		c0,1.387,0.247,2.397,0.74,3.032s1.277,0.952,2.351,0.952c1.006,0,1.772-0.342,2.3-1.025s0.791-1.689,0.791-3.018v-0.718H15.056z"
		/>
	<path fill="#F9F7F7" d="M23.391,24.779c-0.508,0.664-1.003,1.14-1.487,1.428s-1.028,0.432-1.633,0.432
		c-1.162,0-2.026-0.496-2.593-1.487s-0.85-2.522-0.85-4.592v-2.432c0-1.641,0.327-2.9,0.981-3.779s1.587-1.318,2.798-1.318
		c0.625,0,1.172,0.149,1.641,0.447s0.889,0.769,1.26,1.414v-1.597h3.311v1.802h-1.392v9.565h1.392v1.743h-3.428V24.779z
		 M19.128,21.424c0,1.162,0.134,1.987,0.403,2.476s0.715,0.732,1.34,0.732c0.684,0,1.23-0.315,1.641-0.945s0.615-1.472,0.615-2.527
		v-2.886c0-1.064-0.178-1.865-0.535-2.402s-0.881-0.806-1.575-0.806c-0.664,0-1.145,0.244-1.443,0.732s-0.447,1.294-0.447,2.417
		V21.424z"/>
	<path fill="#F9F7F7" d="M28.4,26.405v-1.802h1.377V7.801H28.4V5.97h3.691v18.633h1.377v1.802H28.4z"/>
	<path fill="#F9F7F7" d="M43.342,21.761v0.264c0,1.455-0.349,2.588-1.047,3.398s-1.672,1.216-2.922,1.216
		c-1.416,0-2.49-0.464-3.223-1.392s-1.099-2.29-1.099-4.087v-3.003c0-1.66,0.305-2.93,0.916-3.809s1.487-1.318,2.629-1.318
		c0.459,0,0.906,0.098,1.34,0.293s0.886,0.508,1.355,0.938v-0.967h1.626v4.351h-1.86c-0.078-0.908-0.273-1.58-0.586-2.014
		s-0.757-0.652-1.333-0.652c-0.615,0-1.06,0.249-1.333,0.747s-0.41,1.318-0.41,2.461v3.032c0,1.191,0.154,2.068,0.461,2.629
		s0.784,0.842,1.428,0.842c0.664,0,1.155-0.239,1.472-0.718s0.476-1.216,0.476-2.212H43.342z"/>
	<path fill="#F9F7F7" d="M44.865,13.294h3.662v9.185c0,0.82,0.117,1.399,0.352,1.736s0.63,0.505,1.187,0.505
		c0.449,0,0.894-0.12,1.333-0.359s0.854-0.588,1.245-1.047v-8.218h-1.377v-1.802h3.647v11.309h1.421v1.802h-3.486v-1.626
		c-0.488,0.625-1.023,1.091-1.604,1.399s-1.218,0.461-1.912,0.461c-1.084,0-1.868-0.286-2.351-0.857s-0.725-1.501-0.725-2.791
		v-7.896h-1.392V13.294z"/>
	<path fill="#F9F7F7" d="M57.712,26.405v-1.802h1.377V7.801h-1.377V5.97h3.691v18.633h1.377v1.802H57.712z"/>
	<path fill="#F9F7F7" d="M71.086,24.779c-0.508,0.664-1.003,1.14-1.487,1.428s-1.028,0.432-1.633,0.432
		c-1.162,0-2.026-0.496-2.593-1.487s-0.85-2.522-0.85-4.592v-2.432c0-1.641,0.327-2.9,0.981-3.779s1.587-1.318,2.798-1.318
		c0.625,0,1.172,0.149,1.641,0.447s0.889,0.769,1.26,1.414v-1.597h3.311v1.802h-1.392v9.565h1.392v1.743h-3.428V24.779z
		 M66.823,21.424c0,1.162,0.134,1.987,0.403,2.476s0.715,0.732,1.34,0.732c0.684,0,1.23-0.315,1.641-0.945s0.615-1.472,0.615-2.527
		v-2.886c0-1.064-0.178-1.865-0.535-2.402s-0.881-0.806-1.575-0.806c-0.664,0-1.145,0.244-1.443,0.732s-0.447,1.294-0.447,2.417
		V21.424z"/>
	<path fill="#F9F7F7" d="M81.34,26.493c-0.273,0.049-0.547,0.085-0.82,0.11s-0.537,0.037-0.791,0.037
		c-0.85,0-1.438-0.203-1.765-0.608s-0.491-1.179-0.491-2.322v-8.613h-1.377v-1.802h1.377V8.548h2.314v4.746h1.597v1.802h-1.597
		v8.218c0,0.654,0.068,1.047,0.205,1.179s0.459,0.198,0.967,0.198h0.396L81.34,26.493z"/>
	<path fill="#F9F7F7" d="M91.579,18.216v3.237c0,1.689-0.366,2.976-1.099,3.86s-1.797,1.326-3.193,1.326s-2.466-0.442-3.208-1.326
		s-1.113-2.17-1.113-3.86v-3.237c0-1.689,0.371-2.976,1.113-3.86s1.812-1.326,3.208-1.326s2.461,0.442,3.193,1.326
		S91.579,16.527,91.579,18.216z M89.279,18.509c0-1.23-0.159-2.126-0.476-2.688s-0.823-0.842-1.516-0.842
		c-0.684,0-1.184,0.281-1.501,0.842s-0.476,1.458-0.476,2.688v2.651c0,1.23,0.159,2.126,0.476,2.688s0.818,0.842,1.501,0.842
		c0.693,0,1.199-0.281,1.516-0.842s0.476-1.458,0.476-2.688V18.509z"/>
	<path fill="#F9F7F7" d="M100.764,13.031h0.85v2.417h-0.19c-1.475,0-2.568,0.391-3.281,1.172s-1.069,1.982-1.069,3.604v4.38h1.948
		v1.802h-5.845v-1.802h1.597v-9.507h-1.392v-1.802h3.604v2.695c0.439-0.977,0.977-1.714,1.611-2.212S99.953,13.031,100.764,13.031z"
		/>
	<path fill="#219044" d="M102.595,26.405v-1.86h2.036V7.86h-2.036V5.97h6.606v1.89h-2.007v16.685h2.007v1.86H102.595z"/>
	<path fill="#219044" d="M120.363,14.701c0.508-0.566,1.028-0.986,1.56-1.26s1.101-0.41,1.707-0.41c1.074,0,1.858,0.291,2.351,0.872
		s0.74,1.516,0.74,2.805v7.896h1.377v1.802h-5.068v-1.802h1.377V17.22c0-0.801-0.103-1.375-0.308-1.721s-0.542-0.52-1.011-0.52
		c-0.459,0-0.894,0.117-1.304,0.352s-0.796,0.586-1.157,1.055v8.218h1.406v1.802h-5.068v-1.802h1.377V17.22
		c0-0.801-0.103-1.375-0.308-1.721s-0.542-0.52-1.011-0.52c-0.459,0-0.891,0.117-1.296,0.352s-0.793,0.586-1.165,1.055v8.218h1.392
		v1.802h-5.083v-1.802h1.392v-9.507h-1.392v-1.802h3.486v1.626c0.498-0.635,1.035-1.108,1.611-1.421s1.201-0.469,1.875-0.469
		c0.635,0,1.174,0.146,1.619,0.439S120.207,14.173,120.363,14.701z"/>
	<path fill="#219044" d="M136.55,24.779c-0.508,0.664-1.003,1.14-1.487,1.428s-1.028,0.432-1.633,0.432
		c-1.162,0-2.026-0.496-2.593-1.487s-0.85-2.522-0.85-4.592v-2.432c0-1.641,0.327-2.9,0.981-3.779s1.587-1.318,2.798-1.318
		c0.625,0,1.172,0.149,1.641,0.447s0.889,0.769,1.26,1.414v-1.597h3.311v1.802h-1.392v9.565h1.392v1.743h-3.428V24.779z
		 M132.287,21.424c0,1.162,0.134,1.987,0.403,2.476s0.715,0.732,1.34,0.732c0.684,0,1.23-0.315,1.641-0.945s0.615-1.472,0.615-2.527
		v-2.886c0-1.064-0.178-1.865-0.535-2.402s-0.881-0.806-1.575-0.806c-0.664,0-1.145,0.244-1.443,0.732s-0.447,1.294-0.447,2.417
		V21.424z"/>
	<path fill="#219044" d="M148.371,25.057c-0.381,0.557-0.803,0.959-1.267,1.208s-1.023,0.374-1.677,0.374
		c-1.074,0-1.907-0.435-2.498-1.304s-0.886-2.095-0.886-3.677v-3.75c0-1.572,0.295-2.778,0.886-3.618s1.433-1.26,2.527-1.26
		c0.557,0,1.096,0.151,1.619,0.454s1.052,0.771,1.589,1.406v-1.597h3.398v1.802h-1.406v10.591c0,2.412-0.356,4.131-1.069,5.156
		s-1.89,1.538-3.53,1.538c-1.27,0-2.241-0.308-2.915-0.923s-1.011-1.499-1.011-2.651v-0.205h2.007
		c0.039,0.645,0.208,1.108,0.505,1.392s0.769,0.425,1.414,0.425c0.752,0,1.326-0.256,1.721-0.769s0.593-1.252,0.593-2.219V25.057z
		 M144.387,21.307c0,1.191,0.139,2.029,0.417,2.512s0.75,0.725,1.414,0.725c0.684,0,1.213-0.31,1.589-0.93s0.564-1.501,0.564-2.644
		v-2.549c0-1.104-0.183-1.938-0.549-2.505s-0.901-0.85-1.604-0.85c-0.615,0-1.074,0.22-1.377,0.659s-0.454,1.108-0.454,2.007V21.307
		z"/>
	<path fill="#219044" d="M161.965,22.391c-0.127,1.387-0.542,2.441-1.245,3.164s-1.67,1.084-2.9,1.084
		c-1.357,0-2.393-0.442-3.105-1.326s-1.069-2.17-1.069-3.86V18.7c0-1.797,0.361-3.191,1.084-4.182s1.733-1.487,3.032-1.487
		c1.387,0,2.449,0.471,3.186,1.414s1.106,2.307,1.106,4.094v1.772h-6.064v0.85c0,1.23,0.159,2.126,0.476,2.688
		s0.818,0.842,1.501,0.842c0.557,0,0.994-0.19,1.311-0.571s0.52-0.957,0.608-1.729H161.965z M155.988,18.612h3.809v-0.85
		c0-0.869-0.164-1.55-0.491-2.043s-0.774-0.74-1.34-0.74c-0.684,0-1.184,0.251-1.501,0.754s-0.476,1.311-0.476,2.424V18.612z"/>
	<path fill="#FCF7F7" d="M163.825,25.565c0-0.267,0.099-0.5,0.298-0.698s0.435-0.298,0.708-0.298c0.28,0,0.516,0.096,0.708,0.288
		s0.288,0.428,0.288,0.708c0,0.267-0.099,0.5-0.298,0.698s-0.431,0.298-0.698,0.298c-0.26,0-0.493-0.101-0.698-0.303
		S163.825,25.825,163.825,25.565z"/>
	<path fill="#FCF7F7" d="M172.888,23.309v0.176c0,0.97-0.232,1.725-0.698,2.266c-0.465,0.541-1.115,0.811-1.948,0.811
		c-0.944,0-1.66-0.309-2.148-0.928s-0.732-1.527-0.732-2.725v-2.002c0-1.107,0.204-1.953,0.61-2.539s0.991-0.879,1.753-0.879
		c0.306,0,0.604,0.065,0.894,0.195s0.591,0.338,0.903,0.625v-0.645h1.084v2.9h-1.24c-0.052-0.605-0.182-1.053-0.391-1.343
		s-0.504-0.435-0.889-0.435c-0.41,0-0.707,0.166-0.889,0.498s-0.273,0.879-0.273,1.641v2.021c0,0.794,0.103,1.378,0.308,1.753
		s0.522,0.562,0.952,0.562c0.443,0,0.77-0.16,0.981-0.479s0.317-0.811,0.317-1.475H172.888z"/>
	<path fill="#FCF7F7" d="M179.685,20.946v2.158c0,1.126-0.244,1.984-0.732,2.573s-1.198,0.884-2.129,0.884s-1.644-0.294-2.139-0.884
		s-0.742-1.447-0.742-2.573v-2.158c0-1.126,0.247-1.984,0.742-2.573s1.208-0.884,2.139-0.884s1.641,0.294,2.129,0.884
		S179.685,19.819,179.685,20.946z M178.151,21.141c0-0.82-0.105-1.417-0.317-1.792s-0.549-0.562-1.011-0.562
		c-0.456,0-0.789,0.187-1.001,0.562s-0.317,0.972-0.317,1.792v1.768c0,0.82,0.105,1.417,0.317,1.792s0.545,0.562,1.001,0.562
		c0.462,0,0.799-0.187,1.011-0.562s0.317-0.972,0.317-1.792V21.141z"/>
	<path fill="#FCF7F7" d="M187.214,18.602c0.339-0.377,0.686-0.658,1.04-0.84s0.734-0.273,1.138-0.273
		c0.716,0,1.238,0.194,1.567,0.581s0.493,1.011,0.493,1.87v5.264h0.918v1.201h-3.379v-1.201h0.918v-4.922
		c0-0.534-0.068-0.917-0.205-1.147s-0.361-0.347-0.674-0.347c-0.306,0-0.596,0.078-0.869,0.234s-0.53,0.391-0.771,0.703v5.479h0.938
		v1.201h-3.379v-1.201h0.918v-4.922c0-0.534-0.068-0.917-0.205-1.147s-0.361-0.347-0.674-0.347c-0.306,0-0.594,0.078-0.864,0.234
		s-0.529,0.391-0.776,0.703v5.479h0.928v1.201h-3.389v-1.201h0.928v-6.338h-0.928v-1.201h2.324v1.084
		c0.332-0.423,0.69-0.739,1.074-0.947s0.801-0.313,1.25-0.313c0.423,0,0.783,0.098,1.079,0.293S187.109,18.25,187.214,18.602z"/>
</g>
</svg>
